<?xml version="1.0" encoding="utf-8"?>
<svg version="1.1" xmlns:xlink="http://www.w3.org/1999/xlink" width="35px" height="37px" xmlns="http://www.w3.org/2000/svg">
  <g transform="matrix(1 0 0 1 -407 -254 )">
    <path d="M 16.9759114583333 21.8001302083333  C 17.1278211805556 21.9607204861111  17.2037760416667 22.1453993055556  17.2037760416667 22.3541666666667  C 17.2037760416667 22.5629340277778  17.1278211805556 22.7476128472222  16.9759114583333 22.908203125  L 9.41080729166667 30.9055989583333  L 12.6920572916667 34.3743489583333  C 12.9806857638889 34.6794704861111  13.125 35.0407986111111  13.125 35.4583333333333  C 13.125 35.8758680555556  12.9806857638889 36.2371961805556  12.6920572916667 36.5423177083333  C 12.4034288194444 36.8474392361111  12.0616319444444 37  11.6666666666667 37  L 1.45833333333333 37  C 1.06336805555556 37  0.721571180555556 36.8474392361111  0.432942708333333 36.5423177083333  C 0.144314236111111 36.2371961805556  0 35.8758680555556  0 35.4583333333333  L 0 24.6666666666667  C 0 24.2491319444444  0.144314236111111 23.8878038194444  0.432942708333333 23.5826822916667  C 0.721571180555556 23.2775607638889  1.06336805555556 23.125  1.45833333333333 23.125  C 1.85329861111111 23.125  2.19509548611111 23.2775607638889  2.48372395833333 23.5826822916667  L 5.76497395833333 27.0514322916667  L 13.330078125 19.0540364583333  C 13.4819878472222 18.8934461805556  13.6566840277778 18.8131510416667  13.8541666666667 18.8131510416667  C 14.0516493055556 18.8131510416667  14.2263454861111 18.8934461805556  14.3782552083333 19.0540364583333  L 16.9759114583333 21.8001302083333  Z M 34.5670572916667 0.457682291666665  C 34.8556857638889 0.762803819444439  35 1.12413194444444  35 1.54166666666667  L 35 12.3333333333333  C 35 12.7508680555556  34.8556857638889 13.1121961805556  34.5670572916667 13.4173177083333  C 34.2784288194445 13.7224392361111  33.9366319444445 13.875  33.5416666666667 13.875  C 33.1467013888889 13.875  32.8049045138889 13.7224392361111  32.5162760416667 13.4173177083333  L 29.2350260416667 9.94856770833333  L 21.669921875 17.9459635416667  C 21.5180121527778 18.1065538194444  21.3433159722222 18.1868489583333  21.1458333333333 18.1868489583333  C 20.9483506944445 18.1868489583333  20.7736545138889 18.1065538194444  20.6217447916667 17.9459635416667  L 18.0240885416667 15.1998697916667  C 17.8721788194444 15.0392795138889  17.7962239583333 14.8546006944444  17.7962239583333 14.6458333333333  C 17.7962239583333 14.4370659722222  17.8721788194444 14.2523871527778  18.0240885416667 14.091796875  L 25.5891927083333 6.09440104166667  L 22.3079427083333 2.62565104166667  C 22.0193142361111 2.32052951388889  21.875 1.95920138888889  21.875 1.54166666666667  C 21.875 1.12413194444444  22.0193142361111 0.762803819444439  22.3079427083333 0.457682291666665  C 22.5965711805556 0.152560763888887  22.9383680555556 0  23.3333333333333 0  L 33.5416666666667 0  C 33.9366319444445 0  34.2784288194445 0.152560763888887  34.5670572916667 0.457682291666665  Z " fill-rule="nonzero" fill="#000000" stroke="none" transform="matrix(1 0 0 1 407 254 )" />
  </g>
</svg>