<?xml version="1.0" encoding="utf-8"?>
<svg version="1.1" xmlns:xlink="http://www.w3.org/1999/xlink" width="33px" height="28px" xmlns="http://www.w3.org/2000/svg">
  <g transform="matrix(1 0 0 1 -1775 -69 )">
    <path d="M 10.4950819672131 22.4774381368268  C 10.4950819672131 22.654051431344  10.4349726775956 22.8102862688015  10.3147540983607 22.9461426491994  L 9.41311475409836 23.9650655021834  C 9.29289617486339 24.1009218825813  9.15464480874317 24.1688500727802  8.99836065573771 24.1688500727802  C 8.84207650273224 24.1688500727802  8.70382513661202 24.1009218825813  8.58360655737705 23.9650655021834  L 0.180327868852459 14.4687045123726  C 0.0601092896174864 14.3328481319748  0 14.1766132945172  0 14  C 0 13.8233867054828  0.0601092896174864 13.6671518680252  0.180327868852459 13.5312954876274  L 8.58360655737705 4.03493449781659  C 8.70382513661202 3.89907811741873  8.84207650273224 3.8311499272198  8.99836065573771 3.8311499272198  C 9.15464480874317 3.8311499272198  9.29289617486339 3.89907811741873  9.41311475409836 4.03493449781659  L 10.3147540983607 5.05385735080058  C 10.4349726775956 5.18971373119844  10.4950819672131 5.34594856865599  10.4950819672131 5.52256186317322  C 10.4950819672131 5.69917515769044  10.4349726775956 5.85540999514799  10.3147540983607 5.99126637554585  L 3.22786885245902 14  L 10.3147540983607 22.0087336244542  C 10.4349726775956 22.144590004852  10.4950819672131 22.3008248423096  10.4950819672131 22.4774381368268  Z M 20.9270491803279 0.703056768558951  C 21.0051912568306 0.859291606016493  21.020218579235 1.02571567200388  20.972131147541 1.20232896652111  L 14.2459016393443 27.5109170305677  C 14.1978142076503 27.6875303250849  14.1046448087432 27.8199902959728  13.9663934426229 27.9082969432314  C 13.8281420765027 27.9966035904901  13.6868852459016 28.0135856380398  13.5426229508197 27.9592430858806  L 12.4245901639344 27.6128093158661  C 12.268306010929 27.5584667637069  12.1510928961749 27.4531780688986  12.0729508196721 27.296943231441  C 11.9948087431694 27.1407083939835  11.979781420765 26.9742843279961  12.027868852459 26.7976710334789  L 18.7540983606557 0.489082969432316  C 18.8021857923497 0.312469674915087  18.8953551912568 0.18000970402717  19.033606557377 0.0917030567685599  C 19.1718579234973 0.00339640950994413  19.3131147540984 -0.013585638039789  19.4573770491803 0.0407569141193607  L 20.5754098360656 0.387190684133917  C 20.731693989071 0.441533236293057  20.8489071038251 0.546821931101406  20.9270491803279 0.703056768558951  Z M 33 14  C 33 14.1766132945172  32.9398907103825 14.3328481319748  32.8196721311475 14.4687045123726  L 24.416393442623 23.9650655021834  C 24.296174863388 24.1009218825813  24.1579234972678 24.1688500727802  24.0016393442623 24.1688500727802  C 23.8453551912568 24.1688500727802  23.7071038251366 24.1009218825813  23.5868852459016 23.9650655021834  L 22.6852459016393 22.9461426491994  C 22.5650273224044 22.8102862688015  22.5049180327869 22.654051431344  22.5049180327869 22.4774381368268  C 22.5049180327869 22.3008248423096  22.5650273224044 22.144590004852  22.6852459016393 22.0087336244542  L 29.772131147541 14  L 22.6852459016393 5.99126637554585  C 22.5650273224044 5.85540999514799  22.5049180327869 5.69917515769044  22.5049180327869 5.52256186317322  C 22.5049180327869 5.34594856865599  22.5650273224044 5.18971373119844  22.6852459016393 5.05385735080058  L 23.5868852459016 4.03493449781659  C 23.7071038251366 3.89907811741873  23.8453551912568 3.8311499272198  24.0016393442623 3.8311499272198  C 24.1579234972678 3.8311499272198  24.296174863388 3.89907811741873  24.416393442623 4.03493449781659  L 32.8196721311475 13.5312954876274  C 32.9398907103825 13.6671518680252  33 13.8233867054828  33 14  Z " fill-rule="nonzero" fill="#eeeeee" stroke="none" transform="matrix(1 0 0 1 1775 69 )" />
  </g>
</svg>